# xmcd CD database file
#
# Track frame offsets:
#	150
#	31900
#	55767
#	73120
#	93190
#	100045
#	126217
#	160350
#	171450
#	196287
#	221807
#
# Disc length: 3263 seconds
#
# Revision: 0
# Processed by: cddbd v1.5.2PL0 Copyright (c) Steve Scherf et al.
# Submitted via: CDex 1.70beta2
#
DISCID=9a0cbd0b
DTITLE=世界宗教音楽ライブラリー - ベンガルのバウル
DYEAR=1977
DGENRE=World
TTITLE0=ホリトット・アーファン
TTITLE1=プレムコラショイ・アマル・ホイロナ
TTITLE2=バーティヤリ(舟歌)
TTITLE3=アイスタ・コイ・ロイシャ・ボンドゥ・チャ・トゥイ・ノ・アイラ〈ディーノ・ボンドゥ・ダース)
TTITLE4=ためしうたい
TTITLE5=グチョトット(体の秘密の歌)
TTITLE6=モノブトット(人間の歌)
TTITLE7=イモン施法による曲(ドターラ独奏)〈プローラッド・ブラフマーチャリ〉
TTITLE8=アミ・キ・ヘリラム・ジャレル・ガーテ
TTITLE9=牛追い唄「わが友よ,牛車を見張っておいておくれ」
TTITLE10=マロカ・マタイ・デロ・ゴムタ(ドゥルガ女神の歌)
EXTD=YEAR: 1977
EXTT0=
EXTT1=
EXTT2=
EXTT3=
EXTT4=
EXTT5=
EXTT6=
EXTT7=
EXTT8=
EXTT9=
EXTT10=
PLAYORDER=
